<svg width="16" height="16" viewBox="0 0 16 16" fill="none" xmlns="http://www.w3.org/2000/svg">
<path opacity="0.2" d="M14.3803 4.89119L12.3903 6.57119L13.0003 9.08307C13.0152 9.14863 13.0105 9.21714 12.9866 9.28C12.9627 9.34286 12.9208 9.39727 12.8662 9.4364C12.8115 9.47553 12.7464 9.49763 12.6792 9.49993C12.612 9.50222 12.5457 9.48462 12.4884 9.44932L10.2503 8.10369L8.01406 9.44932C7.95683 9.48462 7.89045 9.50222 7.82325 9.49993C7.75604 9.49763 7.69102 9.47553 7.63633 9.4364C7.58165 9.39727 7.53974 9.34286 7.51588 9.28C7.49201 9.21714 7.48725 9.14863 7.50218 9.08307L8.11031 6.57119L6.12031 4.89119C6.06904 4.8479 6.03189 4.79027 6.01364 4.72569C5.9954 4.66112 5.99689 4.59256 6.01793 4.52884C6.03897 4.46513 6.07859 4.40916 6.1317 4.36814C6.1848 4.32713 6.24897 4.30294 6.31593 4.29869L8.92781 4.09182L9.93406 1.70807C9.96069 1.64629 10.0048 1.59366 10.061 1.55668C10.1172 1.5197 10.183 1.5 10.2503 1.5C10.3176 1.5 10.3834 1.5197 10.4396 1.55668C10.4958 1.59366 10.5399 1.64629 10.5666 1.70807L11.5728 4.09182L14.1878 4.29869C14.2545 4.3035 14.3183 4.3281 14.3709 4.36933C14.4236 4.41056 14.4628 4.46656 14.4834 4.53017C14.5041 4.59378 14.5053 4.6621 14.4869 4.72641C14.4686 4.79072 14.4314 4.84809 14.3803 4.89119Z" fill="#1D1F23"/>
<path d="M14.9597 4.38006C14.9087 4.22113 14.8115 4.08102 14.6804 3.97769C14.5494 3.87436 14.3905 3.81251 14.224 3.80006L11.9153 3.61756L11.0272 1.51381C10.9623 1.36146 10.854 1.23155 10.7159 1.14024C10.5778 1.04893 10.4159 1.00024 10.2503 1.00024C10.0847 1.00024 9.92277 1.04893 9.78464 1.14024C9.64651 1.23155 9.53828 1.36146 9.4734 1.51381L8.58528 3.61756L6.27653 3.80006C6.11074 3.81228 5.95234 3.87359 5.82154 3.97619C5.69074 4.07878 5.59345 4.21801 5.54209 4.37611C5.49073 4.53422 5.48762 4.70404 5.53316 4.86392C5.5787 5.0238 5.67082 5.16649 5.79778 5.27381L7.55153 6.75381L7.01653 8.96569C6.97762 9.12587 6.98713 9.29401 7.04388 9.44878C7.10063 9.60355 7.20204 9.73799 7.33528 9.83506C7.46975 9.93418 7.6306 9.99119 7.79748 9.99887C7.96437 10.0065 8.12977 9.96454 8.27278 9.87819L10.2503 8.68756L12.2284 9.87881C12.3715 9.96493 12.5369 10.0068 12.7037 9.99911C12.8705 9.99144 13.0313 9.93458 13.1659 9.83568C13.2989 9.73842 13.4001 9.60394 13.4567 9.44921C13.5133 9.29448 13.5228 9.12644 13.484 8.96631L12.949 6.75444L14.7028 5.27444C14.8298 5.16788 14.9221 5.02583 14.9678 4.86649C15.0136 4.70715 15.0108 4.53777 14.9597 4.38006ZM12.0678 6.18756C11.9968 6.24752 11.944 6.32606 11.9152 6.41438C11.8863 6.5027 11.8827 6.59729 11.9047 6.68756L12.4222 8.82569L10.5084 7.67506C10.4306 7.62822 10.3414 7.60347 10.2506 7.60347C10.1597 7.60347 10.0706 7.62822 9.99278 7.67506L8.07903 8.82694L8.59653 6.68756C8.6184 6.59723 8.61466 6.5026 8.58574 6.41428C8.55681 6.32596 8.50384 6.24745 8.43278 6.18756L6.75028 4.76631L8.97028 4.59069C9.06165 4.58343 9.14926 4.55121 9.22356 4.49753C9.29785 4.44385 9.35596 4.37078 9.39153 4.28631L10.2503 2.24444L11.1122 4.28631C11.1477 4.37078 11.2058 4.44385 11.2801 4.49753C11.3544 4.55121 11.442 4.58343 11.5334 4.59069L13.754 4.76631L12.0678 6.18756ZM5.50528 7.69881L1.85403 11.3538C1.76021 11.4476 1.63296 11.5003 1.50028 11.5003C1.3676 11.5003 1.24035 11.4476 1.14653 11.3538C1.05271 11.26 1 11.1327 1 11.0001C1 10.8674 1.05271 10.7401 1.14653 10.6463L4.79965 6.99319C4.89347 6.89937 5.02072 6.84666 5.1534 6.84666C5.28608 6.84666 5.41333 6.89937 5.50715 6.99319C5.60097 7.08701 5.65368 7.21425 5.65368 7.34694C5.65368 7.47962 5.60097 7.60686 5.50715 7.70069L5.50528 7.69881ZM6.1809 10.8157C6.2746 10.9094 6.32723 11.0366 6.32723 11.1691C6.32723 11.3017 6.2746 11.4288 6.1809 11.5226L2.85403 14.8538C2.80757 14.9003 2.75242 14.9371 2.69173 14.9623C2.63103 14.9874 2.56598 15.0003 2.50028 15.0003C2.43458 15.0003 2.36953 14.9874 2.30883 14.9623C2.24813 14.9371 2.19298 14.9003 2.14653 14.8538C2.10007 14.8074 2.06322 14.7522 2.03808 14.6915C2.01294 14.6308 2 14.5658 2 14.5001C2 14.4344 2.01294 14.3693 2.03808 14.3086C2.06322 14.2479 2.10007 14.1928 2.14653 14.1463L5.4759 10.8176C5.56966 10.7239 5.69679 10.6712 5.82934 10.6712C5.96189 10.6712 6.08902 10.7239 6.18278 10.8176L6.1809 10.8157ZM10.7434 10.7532C10.7899 10.7996 10.8268 10.8548 10.8519 10.9155C10.8771 10.9762 10.89 11.0412 10.89 11.1069C10.89 11.1726 10.8771 11.2377 10.8519 11.2984C10.8268 11.3591 10.7899 11.4142 10.7434 11.4607L7.3509 14.8532C7.25708 14.947 7.12983 14.9997 6.99715 14.9997C6.86447 14.9997 6.73722 14.947 6.6434 14.8532C6.54958 14.7594 6.49687 14.6321 6.49687 14.4994C6.49687 14.3668 6.54958 14.2395 6.6434 14.1457L10.0365 10.7532C10.0831 10.7064 10.1384 10.6692 10.1993 10.6439C10.2603 10.6186 10.3257 10.6055 10.3917 10.6056C10.4577 10.6057 10.523 10.6188 10.5839 10.6442C10.6448 10.6697 10.7001 10.7069 10.7465 10.7538L10.7434 10.7532Z" fill="#1D1F23"/>
</svg>
